<?xml version="1.0" encoding="UTF-8" standalone="no"?>
<svg
   xmlns:dc="http://purl.org/dc/elements/1.1/"
   xmlns:cc="http://creativecommons.org/ns#"
   xmlns:rdf="http://www.w3.org/1999/02/22-rdf-syntax-ns#"
   xmlns:svg="http://www.w3.org/2000/svg"
   xmlns="http://www.w3.org/2000/svg"
   xmlns:xlink="http://www.w3.org/1999/xlink"
   version="1.1"
   preserveAspectRatio="xMidYMid meet"
   viewBox="0 0 640 640"
   width="640"
   height="640"
   id="svg124">
  <metadata
     id="metadata128">
    <rdf:RDF>
      <cc:Work
         rdf:about="">
        <dc:format>image/svg+xml</dc:format>
        <dc:type
           rdf:resource="http://purl.org/dc/dcmitype/StillImage" />
        <dc:title></dc:title>
      </cc:Work>
    </rdf:RDF>
  </metadata>
  <defs
     id="defs22">
    <path
       d="M324.15 4.07L1.2 327.02L0 648.76L321.75 647.56L644.7 324.61L645.91 2.87L324.15 4.07Z"
       id="j1uWWm6nCg" />
    <path
       d="M324.15 4.07L1.2 327.02L0 648.76L321.75 647.56L644.7 324.61L645.91 2.87L324.15 4.07Z"
       id="j1EUzKtyH" />
    <path
       d="M578.18 391.13L483.23 486.09L162.68 165.54L257.63 70.59L578.18 391.13Z"
       id="a24PN9CjGP" />
    <path
       d="M578.18 391.13L483.23 486.09L162.68 165.54L257.63 70.59L578.18 391.13Z"
       id="b3lHpSwKQ" />
    <path
       d="M425.64 543.67L330.71 638.6L10.17 318.05L105.1 223.13L425.64 543.67Z"
       id="c9t5JlMeX" />
    <path
       d="M425.64 543.67L330.71 638.6L10.17 318.05L105.1 223.13L425.64 543.67Z"
       id="i5cGh8fXEO" />
    <path
       d="M396.48 30.62C403.45 23.65 415.85 24.65 424.1 32.9C432.37 41.18 433.35 53.55 426.38 60.52C419.38 67.52 407.03 66.52 398.76 58.24C390.51 50 389.48 37.62 396.48 30.62Z"
       id="ckIGlSD5U" />
    <path
       d="M396.48 30.62C403.45 23.65 415.85 24.65 424.1 32.9C432.37 41.18 433.35 53.55 426.38 60.52C419.38 67.52 407.03 66.52 398.76 58.24C390.51 50 389.48 37.62 396.48 30.62Z"
       id="a3FedNYzsp" />
    <path
       d="M588.35 222.49C595.32 215.52 607.72 216.52 615.97 224.77C624.24 233.04 625.22 245.42 618.25 252.39C611.25 259.39 598.9 258.38 590.63 250.11C582.38 241.86 581.35 229.49 588.35 222.49Z"
       id="azxpBg9w1" />
    <path
       d="M588.35 222.49C595.32 215.52 607.72 216.52 615.97 224.77C624.24 233.04 625.22 245.42 618.25 252.39C611.25 259.39 598.9 258.38 590.63 250.11C582.38 241.86 581.35 229.49 588.35 222.49Z"
       id="bHRcR8eoV" />
    <path
       d="M2.98 154.45L1.85 0L325.85 2.38L2.98 154.45Z"
       id="amZsbqfyO" />
    <path
       d="M494.33 643.78L648.76 644.89L646.4 322.92L494.33 643.78Z"
       id="c3q1recDz" />
  </defs>
  <g
     id="g122">
    <g
       id="g120">
      <g
         id="g30"
         transform="matrix(0.99176349,0,0,0.99558487,-9.1896048e-4,-2.9676466)">
        <use
           xlink:href="#j1uWWm6nCg"
           opacity="1"
           fill="#000000"
           fill-opacity="1"
           id="use24"
           x="0"
           y="0"
           width="100%"
           height="100%" />
        <g
           id="g28">
          <use
             xlink:href="#j1uWWm6nCg"
             opacity="1"
             fill-opacity="0"
             stroke="#000000"
             stroke-width="1"
             stroke-opacity="0"
             id="use26"
             x="0"
             y="0"
             width="100%"
             height="100%" />
        </g>
      </g>
      <g
         id="g38">
        <use
           xlink:href="#j1EUzKtyH"
           opacity="1"
           fill="#000000"
           fill-opacity="0"
           id="use32" />
        <g
           id="g36">
          <use
             xlink:href="#j1EUzKtyH"
             opacity="1"
             fill-opacity="0"
             stroke="#000000"
             stroke-width="1"
             stroke-opacity="0"
             id="use34" />
        </g>
      </g>
      <g
         id="g46"
         transform="translate(5.5018248,-4.5136278)">
        <use
           xlink:href="#a24PN9CjGP"
           opacity="1"
           fill="#ffe018"
           fill-opacity="1"
           id="use40"
           transform="matrix(0.99531485,0,0,0.99531485,-3.2378198,-1.6692753)"
           x="0"
           y="0"
           width="100%"
           height="100%" />
        <g
           id="g44">
          <use
             xlink:href="#a24PN9CjGP"
             opacity="1"
             fill-opacity="0"
             stroke="#000000"
             stroke-width="1"
             stroke-opacity="0"
             id="use42"
             x="0"
             y="0"
             width="100%"
             height="100%" />
        </g>
      </g>
      <g
         id="g54">
        <use
           xlink:href="#b3lHpSwKQ"
           opacity="1"
           fill="#000000"
           fill-opacity="0"
           id="use48" />
        <g
           id="g52">
          <use
             xlink:href="#b3lHpSwKQ"
             opacity="1"
             fill-opacity="0"
             stroke="#000000"
             stroke-width="1"
             stroke-opacity="0"
             id="use50" />
        </g>
      </g>
      <g
         id="g62"
         transform="matrix(0.99998663,-0.00517111,0.00514621,0.99517286,-2.2108372,2.2035519)">
        <use
           xlink:href="#c9t5JlMeX"
           opacity="1"
           fill="#ffe018"
           fill-opacity="1"
           id="use56"
           transform="matrix(0.99617239,0,0,0.99617239,-1.9591938,-1.1478248)"
           x="0"
           y="0"
           width="100%"
           height="100%" />
        <g
           id="g60">
          <use
             xlink:href="#c9t5JlMeX"
             opacity="1"
             fill-opacity="0"
             stroke="#000000"
             stroke-width="1"
             stroke-opacity="0"
             id="use58"
             x="0"
             y="0"
             width="100%"
             height="100%" />
        </g>
      </g>
      <g
         id="g70">
        <use
           xlink:href="#i5cGh8fXEO"
           opacity="1"
           fill="#000000"
           fill-opacity="0"
           id="use64" />
        <g
           id="g68">
          <use
             xlink:href="#i5cGh8fXEO"
             opacity="1"
             fill-opacity="0"
             stroke="#000000"
             stroke-width="1"
             stroke-opacity="0"
             id="use66" />
        </g>
      </g>
      <g
         id="g78">
        <use
           xlink:href="#ckIGlSD5U"
           opacity="1"
           fill="#ffffff"
           fill-opacity="1"
           id="use72" />
        <g
           id="g76">
          <use
             xlink:href="#ckIGlSD5U"
             opacity="1"
             fill-opacity="0"
             stroke="#000000"
             stroke-width="1"
             stroke-opacity="0"
             id="use74" />
        </g>
      </g>
      <g
         id="g86">
        <use
           xlink:href="#a3FedNYzsp"
           opacity="1"
           fill="#000000"
           fill-opacity="0"
           id="use80" />
        <g
           id="g84">
          <use
             xlink:href="#a3FedNYzsp"
             opacity="1"
             fill-opacity="0"
             stroke="#000000"
             stroke-width="1"
             stroke-opacity="0"
             id="use82" />
        </g>
      </g>
      <g
         id="g94">
        <use
           xlink:href="#azxpBg9w1"
           opacity="1"
           fill="#ffffff"
           fill-opacity="1"
           id="use88" />
        <g
           id="g92">
          <use
             xlink:href="#azxpBg9w1"
             opacity="1"
             fill-opacity="0"
             stroke="#000000"
             stroke-width="1"
             stroke-opacity="0"
             id="use90" />
        </g>
      </g>
      <g
         id="g102">
        <use
           xlink:href="#bHRcR8eoV"
           opacity="1"
           fill="#000000"
           fill-opacity="0"
           id="use96" />
        <g
           id="g100">
          <use
             xlink:href="#bHRcR8eoV"
             opacity="1"
             fill-opacity="0"
             stroke="#000000"
             stroke-width="1"
             stroke-opacity="0"
             id="use98" />
        </g>
      </g>
      <g
         id="g110"
         transform="matrix(0.98382579,0,0,0.993676,0.90362012,1.4709494)">
        <use
           xlink:href="#amZsbqfyO"
           opacity="1"
           fill="#ffe018"
           fill-opacity="1"
           id="use104"
           x="0"
           y="0"
           width="100%"
           height="100%" />
        <g
           id="g108">
          <use
             xlink:href="#amZsbqfyO"
             opacity="1"
             fill-opacity="0"
             stroke="#000000"
             stroke-width="1"
             stroke-opacity="0"
             id="use106"
             x="0"
             y="0"
             width="100%"
             height="100%" />
        </g>
      </g>
      <g
         id="g118"
         transform="matrix(0.9656625,0,0,0.98253828,15.184979,6.1147064)">
        <use
           xlink:href="#c3q1recDz"
           opacity="1"
           fill="#ffe018"
           fill-opacity="1"
           id="use112"
           x="0"
           y="0"
           width="100%"
           height="100%" />
        <g
           id="g116">
          <use
             xlink:href="#c3q1recDz"
             opacity="1"
             fill-opacity="0"
             stroke="#000000"
             stroke-width="1"
             stroke-opacity="0"
             id="use114"
             x="0"
             y="0"
             width="100%"
             height="100%" />
        </g>
      </g>
    </g>
  </g>
</svg>
